<!DOCTYPE svg PUBLIC "-//W3C//DTD SVG 1.1//EN" "http://www.w3.org/Graphics/SVG/1.1/DTD/svg11.dtd">
<!-- Uploaded to: SVG Repo, www.svgrepo.com, Transformed by: SVG Repo Mixer Tools -->
<svg fill="#ffffff" version="1.1" id="Capa_1" xmlns="http://www.w3.org/2000/svg" xmlns:xlink="http://www.w3.org/1999/xlink" width="800px" height="800px" viewBox="-3.18 -3.18 38.20 38.20" xml:space="preserve" stroke="#ffffff" stroke-width="0.00031837">
<g id="SVGRepo_bgCarrier" stroke-width="0">
<rect x="-3.18" y="-3.18" width="38.20" height="38.20" rx="19.1" fill="#3c3b39" strokewidth="0"/>
</g>
<g id="SVGRepo_tracerCarrier" stroke-linecap="round" stroke-linejoin="round"/>
<g id="SVGRepo_iconCarrier"> <g> <g> <circle cx="16.197" cy="4.483" r="4.483"/> <polygon points="20.157,18.366 20.162,16.118 21.274,19.669 23.563,18.811 20.187,10.139 20.169,10.136 20.169,10.083 17.833,9.639 16.179,11.62 14.472,9.639 13.806,9.764 11.787,10.139 8.49,19.061 9.319,19.371 9.319,20.314 8.275,20.314 8.275,27.652 11.077,27.652 11.077,20.314 9.921,20.314 9.921,19.598 10.779,19.919 11.896,16.172 11.927,18.366 12.013,20.04 12.297,20.04 12.289,22.007 12.144,30.175 11.548,30.175 11.548,31.838 12.131,31.838 15.355,31.838 15.956,31.838 15.956,30.175 15.355,30.175 15.345,21.807 16.845,21.79 16.796,30.175 16.201,30.175 16.201,31.838 16.784,31.838 20.007,31.838 20.608,31.838 20.608,30.175 20.007,30.175 19.941,22.04 19.839,20.04 20.074,20.04 "/> </g> </g> </g>
</svg>